<svg width="24" height="24" viewBox="0 0 24 24" fill="none" xmlns="http://www.w3.org/2000/svg"><ellipse cx="11.543" cy="11.82" rx="11.543" ry="11.82" fill="url(#paint0_linear_305_6611)"></ellipse><circle cx="11.543" cy="12.457" r="11.543" fill="url(#paint1_linear_305_6611)"></circle><circle cx="11.4525" cy="12.5482" r="9.28843" stroke="white"></circle><path d="M13.7789 10.7503L8.7721 13.6601C8.6799 13.7131 8.57555 13.741 8.46936 13.741C8.36317 13.741 8.25882 13.7131 8.16663 13.6601L6.56329 12.7315C6.47239 12.6774 6.39716 12.6003 6.34507 12.5078C6.29298 12.4154 6.26585 12.3109 6.26638 12.2046V10.3475C6.26645 10.2407 6.29446 10.1357 6.34759 10.0433C6.40073 9.95076 6.47713 9.87396 6.56912 9.82055L8.16779 8.89198C8.25999 8.839 8.36434 8.81112 8.47053 8.81112C8.57671 8.81112 8.68107 8.839 8.77326 8.89198L10.3719 9.82055C10.4639 9.87396 10.5403 9.95076 10.5935 10.0433C10.6466 10.1357 10.6746 10.2407 10.6747 10.3475V11.2386C10.6747 11.2652 10.6817 11.2913 10.6949 11.3143C10.708 11.3374 10.727 11.3566 10.7499 11.3699C10.7727 11.3833 10.7986 11.3904 10.8251 11.3906C10.8515 11.3908 10.8775 11.384 10.9006 11.3709L11.7331 10.8873C11.7789 10.8605 11.817 10.8221 11.8433 10.7758C11.8697 10.7296 11.8835 10.6771 11.8833 10.6238V9.64491C11.8832 9.53823 11.8553 9.43343 11.8024 9.34097C11.7495 9.24851 11.6734 9.17162 11.5817 9.11798L8.76744 7.48801C8.67543 7.43445 8.57101 7.40625 8.4647 7.40625C8.3584 7.40625 8.25397 7.43445 8.16197 7.48801L5.35352 9.11798C5.26153 9.17139 5.18513 9.24819 5.132 9.34068C5.07886 9.43317 5.05085 9.53809 5.05078 9.64491V12.9072C5.05085 13.014 5.07886 13.1189 5.132 13.2114C5.18513 13.3039 5.26153 13.3807 5.35352 13.4341L8.16197 15.0641C8.25397 15.1176 8.3584 15.1458 8.4647 15.1458C8.57101 15.1458 8.67543 15.1176 8.76744 15.0641L13.7742 12.1543C13.8664 12.1013 13.9708 12.0734 14.077 12.0734C14.1831 12.0734 14.2875 12.1013 14.3797 12.1543L15.9784 13.0828C16.0703 13.1362 16.1467 13.213 16.1999 13.3055C16.253 13.398 16.281 13.5029 16.2811 13.6098V15.4669C16.281 15.5737 16.253 15.6786 16.1999 15.7711C16.1467 15.8636 16.0703 15.9404 15.9784 15.9938L14.3843 16.9224C14.2921 16.9754 14.1878 17.0033 14.0816 17.0033C13.9754 17.0033 13.8711 16.9754 13.7789 16.9224L12.1802 15.9938C12.0882 15.9404 12.0118 15.8636 11.9587 15.7711C11.9055 15.6786 11.8775 15.5737 11.8775 15.4669V14.5746C11.8776 14.548 11.8707 14.5218 11.8575 14.4987C11.8443 14.4756 11.8253 14.4565 11.8024 14.4431C11.7794 14.4298 11.7534 14.4228 11.7269 14.4229C11.7004 14.423 11.6744 14.4301 11.6516 14.4435L10.8191 14.9259C10.7733 14.9528 10.7353 14.9912 10.709 15.0375C10.6826 15.0837 10.6688 15.1361 10.6688 15.1894V16.1695C10.6689 16.2762 10.6968 16.3809 10.7497 16.4734C10.8026 16.5659 10.8787 16.6428 10.9704 16.6964L13.7789 18.3264C13.8709 18.3799 13.9753 18.4081 14.0816 18.4081C14.1879 18.4081 14.2923 18.3799 14.3843 18.3264L17.1928 16.6964C17.2848 16.643 17.3612 16.5662 17.4143 16.4737C17.4675 16.3812 17.4955 16.2763 17.4955 16.1695V12.9072C17.4955 12.8004 17.4675 12.6955 17.4143 12.603C17.3612 12.5105 17.2848 12.4337 17.1928 12.3803L14.3843 10.7503C14.2923 10.6967 14.1879 10.6685 14.0816 10.6685C13.9753 10.6685 13.8709 10.6967 13.7789 10.7503Z" fill="white"></path><defs><linearGradient id="paint0_linear_305_6611" x1="-0.554062" y1="13.6246" x2="24.5637" y2="13.2834" gradientUnits="userSpaceOnUse"><stop stop-color="#8247E5"></stop><stop offset="0.498649" stop-color="#C8A8FF"></stop><stop offset="1" stop-color="#8247E5"></stop></linearGradient><linearGradient id="paint1_linear_305_6611" x1="11.543" y1="0.914062" x2="10.5123" y2="24" gradientUnits="userSpaceOnUse"><stop stop-color="#B183FE"></stop><stop offset="1" stop-color="#8247E5"></stop></linearGradient></defs></svg>